<svg width="156" height="86" viewBox="0 0 156 86" fill="none" xmlns="http://www.w3.org/2000/svg">
<path d="M4.55114 69V16.6364H15.4432V36.3239H15.7756C16.2528 35.267 16.9432 34.1932 17.8466 33.1023C18.767 31.9943 19.9602 31.0739 21.4261 30.3409C22.9091 29.5909 24.75 29.2159 26.9489 29.2159C29.8125 29.2159 32.4545 29.9659 34.875 31.4659C37.2955 32.9489 39.2301 35.1903 40.679 38.1903C42.1278 41.1733 42.8523 44.9148 42.8523 49.4148C42.8523 53.7955 42.1449 57.4943 40.7301 60.5114C39.3324 63.5114 37.4233 65.7869 35.0028 67.3381C32.5994 68.8722 29.9063 69.6392 26.9233 69.6392C24.8097 69.6392 23.0114 69.2898 21.5284 68.5909C20.0625 67.892 18.8608 67.0142 17.9233 65.9574C16.9858 64.8835 16.2699 63.8011 15.7756 62.7102H15.2898V69H4.55114ZM15.2131 49.3636C15.2131 51.6989 15.5369 53.7358 16.1847 55.4744C16.8324 57.2131 17.7699 58.5682 18.9972 59.5398C20.2244 60.4943 21.7159 60.9716 23.4716 60.9716C25.2443 60.9716 26.7443 60.4858 27.9716 59.5142C29.1989 58.5256 30.1278 57.1619 30.7585 55.4233C31.4063 53.6676 31.7301 51.6477 31.7301 49.3636C31.7301 47.0966 31.4148 45.1023 30.7841 43.3807C30.1534 41.6591 29.2244 40.3125 27.9972 39.3409C26.7699 38.3693 25.2614 37.8835 23.4716 37.8835C21.6989 37.8835 20.1989 38.3523 18.9716 39.2898C17.7614 40.2273 16.8324 41.5568 16.1847 43.2784C15.5369 45 15.2131 47.0284 15.2131 49.3636Z" fill="#4338CA"/>
<path d="M47.96 69V29.7273H58.8521V69H47.96ZM53.4316 24.6648C51.8123 24.6648 50.4231 24.1278 49.264 23.054C48.122 21.9631 47.5509 20.6591 47.5509 19.142C47.5509 17.642 48.122 16.3551 49.264 15.2812C50.4231 14.1903 51.8123 13.6449 53.4316 13.6449C55.0509 13.6449 56.4316 14.1903 57.5737 15.2812C58.7328 16.3551 59.3123 17.642 59.3123 19.142C59.3123 20.6591 58.7328 21.9631 57.5737 23.054C56.4316 24.1278 55.0509 24.6648 53.4316 24.6648ZM76.3093 16.6364V69H65.4172V16.6364H76.3093ZM93.7664 16.6364V69H82.8744V16.6364H93.7664ZM133.008 40.9261L123.036 41.5398C122.866 40.6875 122.499 39.9205 121.937 39.2386C121.374 38.5398 120.633 37.9858 119.712 37.5767C118.809 37.1506 117.726 36.9375 116.465 36.9375C114.778 36.9375 113.354 37.2955 112.195 38.0114C111.036 38.7102 110.457 39.6477 110.457 40.8239C110.457 41.7614 110.832 42.554 111.582 43.2017C112.332 43.8494 113.619 44.3693 115.442 44.7614L122.55 46.1932C126.369 46.9773 129.215 48.2386 131.09 49.9773C132.965 51.7159 133.903 54 133.903 56.8295C133.903 59.4034 133.144 61.6619 131.627 63.6051C130.127 65.5483 128.065 67.0653 125.44 68.1562C122.832 69.2301 119.823 69.767 116.414 69.767C111.215 69.767 107.073 68.6847 103.988 66.5199C100.92 64.3381 99.1214 61.3722 98.593 57.6222L109.306 57.0597C109.63 58.6449 110.414 59.8551 111.658 60.6903C112.903 61.5085 114.496 61.9176 116.44 61.9176C118.349 61.9176 119.883 61.5511 121.042 60.8182C122.218 60.0682 122.815 59.1051 122.832 57.929C122.815 56.9403 122.397 56.1307 121.579 55.5C120.761 54.8523 119.499 54.358 117.795 54.017L110.994 52.6619C107.158 51.8949 104.303 50.5653 102.428 48.6733C100.57 46.7812 99.6413 44.3693 99.6413 41.4375C99.6413 38.9148 100.323 36.7415 101.687 34.9176C103.067 33.0938 105.002 31.6875 107.491 30.6989C109.996 29.7102 112.928 29.2159 116.286 29.2159C121.246 29.2159 125.15 30.2642 127.996 32.3608C130.86 34.4574 132.53 37.3125 133.008 40.9261ZM144.968 69.6648C143.28 69.6648 141.831 69.0682 140.621 67.875C139.428 66.6648 138.831 65.2159 138.831 63.5284C138.831 61.858 139.428 60.4261 140.621 59.233C141.831 58.0398 143.28 57.4432 144.968 57.4432C146.604 57.4432 148.036 58.0398 149.263 59.233C150.49 60.4261 151.104 61.858 151.104 63.5284C151.104 64.6534 150.814 65.6847 150.235 66.6222C149.672 67.5426 148.931 68.2841 148.01 68.8466C147.09 69.392 146.076 69.6648 144.968 69.6648Z" fill="white"/>
</svg>
